<svg xmlns="http://www.w3.org/2000/svg" viewBox="0 0 24 24">
  <path fill="#25D366" d="M12 0a12 12 0 0 0-10.6 17.9L0 24l6.4-1.7A12 12 0 1 0 12 0zm0 22a9.9 9.9 0 0 1-5-1.4l-.4-.2-3.8 1 1-3.7-.3-.4A9.9 9.9 0 1 1 12 22zm5.5-7.2c-.3-.2-1.8-.9-2.1-1-.3-.1-.5-.2-.7.2-.2.3-.7 1-.9 1.1-.1.1-.3.1-.6 0-1.2-.6-2-1.1-2.8-2-.2-.3-.3-.4 0-.7.2-.2.3-.4.4-.5.1-.1.1-.3 0-.5-.2-.4-.8-2-1.1-2.7-.3-.7-.5-.6-.7-.6s-.4 0-.7 0c-.2 0-.5.1-.8.4-.3.3-1.1 1-1.1 2.5s1.1 2.9 1.3 3.1c.2.2 2.2 3.4 5.3 4.7.7.3 1.2.5 1.6.6.6.2 1.1.2 1.5.1.5-.1 1.8-.7 2.1-1.4.3-.7.3-1.3.2-1.4-.2-.2-.4-.3-.7-.5z"/>
</svg>
