<svg xmlns="http://www.w3.org/2000/svg" viewBox="0 0 24 24">
  <circle cx="12" cy="12" r="12" fill="#25D366"/>
  <path fill="#fff" d="M17.5 14.7c-.3-.2-1.7-.8-1.9-.9-.3-.1-.5-.2-.7.2-.2.3-.8.9-.9 1-.2.1-.3.1-.6 0s-1.2-.4-2.3-1.4c-.8-.7-1.4-1.5-1.5-1.7-.2-.3 0-.4.1-.5.1-.1.3-.3.4-.4.1-.1.2-.2.3-.3.1-.1.2-.2.3-.4.1-.2 0-.3 0-.4s-.7-1.7-.9-2.3c-.2-.5-.5-.4-.7-.4h-.6c-.2 0-.4 0-.6.3-.2.3-.8.9-.8 2.2s.8 2.5.9 2.7c.1.2 1.6 2.5 3.8 3.5 2.2 1 2.2.7 2.6.7.4 0 1.3-.5 1.5-.9.2-.4.2-.7.1-.9-.1-.2-.2-.2-.5-.4z"/>
</svg>
